<svg width="48" height="48" viewBox="0 0 48 48" fill="none" xmlns="http://www.w3.org/2000/svg">
<rect width="48" height="48" fill="#323238"/>
<path d="M17.9245 35H13.3634V20.3117H17.9245V35ZM15.6415 18.3081C14.183 18.3081 13 17.1 13 15.6415C13 14.941 13.2783 14.2691 13.7737 13.7737C14.269 13.2783 14.9409 13 15.6415 13C16.342 13 17.0139 13.2783 17.5093 13.7737C18.0046 14.2691 18.2829 14.941 18.2829 15.6415C18.2829 17.1 17.0995 18.3081 15.6415 18.3081ZM34.9951 35H30.4438V27.8498C30.4438 26.1458 30.4095 23.9605 28.0725 23.9605C25.7011 23.9605 25.3377 25.8118 25.3377 27.7271V35H20.7815V20.3117H25.156V22.3153H25.2198C25.8287 21.1613 27.3162 19.9434 29.5354 19.9434C34.1514 19.9434 35 22.9832 35 26.9315V35H34.9951Z" fill="white"/>
</svg>
